<svg width="24" height="24" viewBox="0 0 24 24" fill="none" xmlns="http://www.w3.org/2000/svg">
<g clip-path="url(#clip0_15_84)">
<path d="M23.546 10.93L13.067 0.451999C12.7765 0.162549 12.3831 2.67029e-05 11.973 2.67029e-05C11.5629 2.67029e-05 11.1695 0.162549 10.879 0.451999L8.708 2.627L11.468 5.387C11.7936 5.27668 12.1437 5.25991 12.4783 5.33858C12.813 5.41726 13.1189 5.58822 13.3613 5.83206C13.6037 6.07589 13.7728 6.38282 13.8495 6.71796C13.9261 7.05311 13.9073 7.40304 13.795 7.728L16.453 10.388C16.8464 10.2512 17.2745 10.2521 17.6673 10.3905C18.0602 10.5289 18.3943 10.7965 18.6151 11.1497C18.8359 11.5028 18.9302 11.9205 18.8826 12.3342C18.835 12.748 18.6482 13.1333 18.353 13.427C18.1824 13.5979 17.9797 13.7335 17.7567 13.826C17.5336 13.9185 17.2945 13.9661 17.053 13.9661C16.8115 13.9661 16.5724 13.9185 16.3493 13.826C16.1263 13.7335 15.9236 13.5979 15.753 13.427C15.4973 13.1706 15.3227 12.8447 15.2509 12.4897C15.179 12.1348 15.2132 11.7667 15.349 11.431L12.86 8.955V15.48C13.036 15.566 13.202 15.683 13.348 15.828C13.6905 16.174 13.8826 16.6412 13.8826 17.128C13.8826 17.6148 13.6905 18.082 13.348 18.428C13.1767 18.5994 12.9734 18.7354 12.7496 18.8282C12.5257 18.9209 12.2858 18.9687 12.0435 18.9687C11.8012 18.9687 11.5613 18.9209 11.3374 18.8282C11.1136 18.7354 10.9103 18.5994 10.739 18.428C10.568 18.2576 10.4324 18.0552 10.3399 17.8323C10.2473 17.6093 10.1997 17.3704 10.1997 17.129C10.1997 16.8876 10.2473 16.6487 10.3399 16.4257C10.4324 16.2028 10.568 16.0004 10.739 15.83C10.921 15.65 11.126 15.514 11.344 15.424V8.835C11.1195 8.74323 10.9155 8.60785 10.7436 8.43669C10.5718 8.26553 10.4357 8.062 10.343 7.83786C10.2504 7.61373 10.2032 7.37345 10.204 7.13093C10.2049 6.88842 10.2538 6.64848 10.348 6.425L7.636 3.7L0.45 10.881C-0.15 11.486 -0.15 12.465 0.45 13.07L10.93 23.547C11.0735 23.6906 11.2439 23.8046 11.4314 23.8823C11.619 23.96 11.82 24 12.023 24C12.226 24 12.427 23.96 12.6146 23.8823C12.8021 23.8046 12.9725 23.6906 13.116 23.547L23.546 13.117C23.6899 12.9736 23.8041 12.8031 23.882 12.6155C23.9599 12.4278 24 12.2267 24 12.0235C24 11.8203 23.9599 11.6192 23.882 11.4315C23.8041 11.2439 23.6899 11.0734 23.546 10.93" fill="#0EA5E9"/>
</g>
<defs>
<clipPath id="clip0_15_84">
<rect width="24" height="24" fill="white"/>
</clipPath>
</defs>
</svg>
